<svg width="20" height="18" viewBox="0 0 20 18" fill="none" xmlns="http://www.w3.org/2000/svg">
<path fill-rule="evenodd" clip-rule="evenodd" d="M13.595 11.0271C14.136 10.0232 14.4426 8.87655 14.4426 7.65889C14.4426 3.70513 11.2095 0.499969 7.2213 0.499969C3.23309 0.499969 0 3.70513 0 7.65889C0 11.6127 3.23309 14.8178 7.2213 14.8178C9.26014 14.8178 11.1016 13.9802 12.4147 12.6331L18.3042 17.2765C18.7379 17.6185 19.3877 17.5617 19.7556 17.1498C20.1234 16.7379 20.0701 16.1267 19.6364 15.7848L13.6712 11.0816C13.6465 11.0622 13.6211 11.044 13.595 11.0271ZM7.2213 13.7451C3.83069 13.7451 1.08206 11.0202 1.08206 7.65889C1.08206 4.29757 3.83069 1.57268 7.2213 1.57268C10.6119 1.57268 13.3605 4.29757 13.3605 7.65889C13.3605 11.0202 10.6119 13.7451 7.2213 13.7451Z" fill="black"/>
</svg>
